<svg xmlns="http://www.w3.org/2000/svg" width="512" height="512">
  <path fill="#21425d" d="M0 0h512v512H0z"/>
  <g fill="#fff">
    <path d="M76.8 76.8h128v128h-128z"/>
    <path fill="#21425d" d="M102.4 102.4h76.8v76.8h-76.8z"/>
    <path d="M120.32 120.32h40.96v40.96h-40.96zM307.2 76.8h128v128h-128z"/>
    <path fill="#21425d" d="M332.8 102.4h76.8v76.8h-76.8z"/>
    <path d="M350.72 120.32h40.96v40.96h-40.96zM76.8 307.2h128v128h-128z"/>
    <path fill="#21425d" d="M102.4 332.8h76.8v76.8h-76.8z"/>
    <path d="M120.32 350.72h40.96v40.96h-40.96zM215.04 215.04h81.92v81.92h-81.92z"/>
    <circle cx="256" cy="128" r="10.24"/>
    <circle cx="128" cy="256" r="10.24"/>
    <circle cx="384" cy="256" r="10.24"/>
    <circle cx="256" cy="384" r="10.24"/>
  </g>
</svg>
